<?xml version="1.0" encoding="UTF-8"?>
<svg width="25px" height="22px" viewBox="0 0 25 22" version="1.1" xmlns="http://www.w3.org/2000/svg" xmlns:xlink="http://www.w3.org/1999/xlink">
    <!-- Generator: Sketch 50.2 (55047) - http://www.bohemiancoding.com/sketch -->
    <title>Group 8</title>
    <desc>Created with Sketch.</desc>
    <defs></defs>
    <g id="AMC---Dashboard" stroke="none" stroke-width="1" fill="none" fill-rule="evenodd">
        <g id="Sidebar-Menu" transform="translate(-25.000000, -49.000000)">
            <g id="Group-8" transform="translate(25.000000, 49.000000)">
                <g id="watson_picto-web_02">
                    <path d="M0.577163636,21.3757867 L23.6433455,21.3757867 L23.6433455,1.76205333 C23.6433455,1.18858667 23.1822545,0.72292 22.6135273,0.72292 L1.60770909,0.72292 C1.03825455,0.72292 0.577163636,1.18858667 0.577163636,1.76205333 L0.577163636,21.3757867 Z" id="Stroke-24" stroke="#000000" stroke-width="0.866"></path>
                    <path d="M23.6433455,3.93191333 L0.577163636,3.93191333" id="Stroke-26" stroke="#000000" stroke-width="0.866"></path>
                    <path d="M21.9790545,1.93321333 C21.6961455,1.93321333 21.4677818,2.16348 21.4677818,2.44874667 C21.4677818,2.73401333 21.6961455,2.96501333 21.9790545,2.96501333 C22.2619636,2.96501333 22.4910545,2.73401333 22.4910545,2.44874667 C22.4910545,2.16348 22.2619636,1.93321333 21.9790545,1.93321333 Z" id="Fill-28" fill="#000000"></path>
                    <path d="M19.4199273,1.93321333 C19.1370182,1.93321333 18.9086545,2.16348 18.9086545,2.44874667 C18.9086545,2.73401333 19.1370182,2.96501333 19.4199273,2.96501333 C19.7028364,2.96501333 19.9319273,2.73401333 19.9319273,2.44874667 C19.9319273,2.16348 19.7028364,1.93321333 19.4199273,1.93321333 Z" id="Fill-30" fill="#000000"></path>
                    <path d="M16.8608,1.93321333 C16.5778909,1.93321333 16.3495273,2.16348 16.3495273,2.44874667 C16.3495273,2.73401333 16.5778909,2.96501333 16.8608,2.96501333 C17.1437091,2.96501333 17.3728,2.73401333 17.3728,2.44874667 C17.3728,2.16348 17.1437091,1.93321333 16.8608,1.93321333 Z" id="Fill-32" fill="#000000"></path>
                </g>
                <g id="watson_picto-analytics_05" transform="translate(6.000000, 7.000000)" stroke="#000000" stroke-linecap="round" stroke-width="0.866">
                    <path d="M0,0 L0,10.2666667" id="Stroke-1"></path>
                    <polyline id="Stroke-2" stroke-linejoin="round" points="13 11 0 11 2.74747761 5.62222222 4.62148442 8.31077199 6.5 2.93333333 9.3114201 6.97090568 12.1289885 2.93333333"></polyline>
                </g>
            </g>
        </g>
    </g>
</svg>
