<?xml version="1.0" encoding="UTF-8"?>
<svg width="23px" height="26px" viewBox="0 0 23 26" version="1.1" xmlns="http://www.w3.org/2000/svg" xmlns:xlink="http://www.w3.org/1999/xlink">
    <!-- Generator: sketchtool 49.2 (51160) - http://www.bohemiancoding.com/sketch -->
    <title>BC756B1F-226D-4A30-854C-0CE710CF927E@1x</title>
    <desc>Created with sketchtool.</desc>
    <defs></defs>
    <g id="AMC---Dashboard" stroke="none" stroke-width="1" fill="none" fill-rule="evenodd" stroke-linecap="round" stroke-linejoin="round">
        <g id="Sidebar-Menu" transform="translate(-33.000000, -429.000000)" stroke="#000000" stroke-width="0.866">
            <g id="watson_picto-HR_02" transform="translate(34.000000, 430.000000)">
                <path d="M13.133061,2 C17.6311643,2.98878394 21,7.03837072 21,11.8848878 C21,17.4715171 16.5230522,22 11,22" id="Stroke-13"></path>
                <path d="M7.86693901,22 C3.36883572,21.011954 0,16.9616293 0,12.1151122 C0,6.52922078 4.47694777,2 10,2" id="Stroke-15"></path>
                <polyline id="Stroke-17" points="9 0 11 1.5 9 3"></polyline>
                <polyline id="Stroke-19" points="13 24 11 22.5003512 13 21"></polyline>
                <path d="M14,19 L14,16.2992804 C14,14.3979117 12.6885372,12.8069705 10.9255114,12.3871173 C11.7236588,12.0301256 12.2802007,11.2268943 12.2802007,10.2925074 C12.2802007,9.0267391 11.2597453,8 10,8 C8.74102663,8 7.71979931,9.0267391 7.71979931,10.2925074 C7.71979931,11.2268943 8.27711308,12.0301256 9.07448861,12.3871173 C7.31223466,12.8069705 6,14.3979117 6,16.2992804 L6,19" id="Stroke-21"></path>
                <path d="M17,17 L17,14.2992804 C17,12.3979117 15.7470501,10.8069705 14.0626844,10.3871173 C14.8252212,10.0301256 15.3569322,9.22689431 15.3569322,8.29250741 C15.3569322,7.0267391 14.3820059,6 13.1784661,6 C11.9756637,6 11,7.0267391 11,8.29250741" id="Stroke-23"></path>
                <path d="M4,17 L4,14.2992804 C4,12.3979117 5.25294985,10.8069705 6.93731563,10.3871173 C6.17477876,10.0301256 5.64306785,9.22689431 5.64306785,8.29250741 C5.64306785,7.0267391 6.6179941,6 7.82153392,6 C9.02433628,6 10,7.0267391 10,8.29250741" id="Stroke-25"></path>
            </g>
        </g>
    </g>
</svg>
